<svg xmlns="http://www.w3.org/2000/svg" version="1.1" xmlns:xlink="http://www.w3.org/1999/xlink" xmlns:svgjs="http://svgjs.com/svgjs" width="500" height="300" transform="matrix(1,0,0,1,0,0)">
  <text font-family="DM Sans" font-size="260" text-anchor="left" x="310" charspacing="20px">
    <tspan dy="20.8" x="310"/>
  </text>
  <path transform="matrix(0.7071067811865476,0.7071067811865475,-0.7071067811865475,0.7071067811865476,148,149.33)" d="M19.191,79.055A6,6,32.28143879064133,0,1,11.068,70.877L21,53A4.299975199886445,4.299975199886445,11.92160794873401,0,1,28.868,56.355L10.256,116.73A6,6,-19.556726682132684,0,0,20.801,122.083L59.59,70.024A6,6,-24.646320057242658,0,0,51.901,61.174ZM-58.868,56.148A6,6,32.281438790628236,0,1,-55.847,45.024L-35.399,44.687A4.299975199885387,4.299975199885387,11.921607948728218,0,1,-34.371,53.178L-95.963,67.247A6,6,-19.556726682103942,0,0,-95.326,79.056L-30.847,86.618A6,6,-24.646320057252524,0,0,-27.028,75.535ZM-78.06,-22.907A6,6,32.28143879068752,0,1,-66.915,-25.853L-56.399,-8.313A4.299975199890262,4.299975199890262,11.92160794874024,0,1,-63.239,-3.177L-106.219,-49.483A6,6,-19.556726682145218,0,0,-116.127,-43.027L-90.437,16.595A6,6,335.3536799427175,0,0,-78.929,14.36ZM-19.191,-79.055A6,6,32.281438790641324,0,1,-11.068,-70.877L-21,-53A4.299975199886444,4.299975199886444,11.921607948734007,0,1,-28.868,-56.355L-10.256,-116.73A6,6,-19.556726682132673,0,0,-20.801,-122.083L-59.59,-70.024A6,6,-24.646320057242654,0,0,-51.901,-61.174ZM58.868,-56.148A6,6,32.28143879062825,0,1,55.847,-45.024L35.399,-44.687A4.299975199885387,4.299975199885387,11.921607948728218,0,1,34.371,-53.178L95.963,-67.247A6,6,-19.556726682103942,0,0,95.326,-79.056L30.847,-86.618A6,6,-24.646320057252513,0,0,27.028,-75.535ZM78.06,22.907A6,6,-327.7185612093125,0,1,66.915,25.853L56.399,8.313A4.299975199890257,4.299975199890257,11.921607948740228,0,1,63.239,3.177L106.219,49.483A6,6,-19.556726682145225,0,0,116.127,43.027L90.437,-16.595A6,6,-24.64632005728253,0,0,78.929,-14.36Z"/>
</svg>